<svg width="64" height="64" viewBox="0 0 64 64" fill="none" xmlns="http://www.w3.org/2000/svg">
<path d="M18.1248 0C10.8337 0 4.79296 5.456 3.87158 12.5H29.2473C30.0001 12.5 30.2466 11.8356 30.2466 11.3973C30.2466 10.9589 30.2531 1.70548 30.2498 1.07192C30.2466 0.438356 29.8082 0 29.1496 0H18.1248Z" fill="white"/>
<path fill-rule="evenodd" clip-rule="evenodd" d="M40.25 0C43.6962 0 46.5 2.80375 46.5 6.25C46.5 9.69625 43.6962 12.5 40.25 12.5H35.0685C34.3598 12.5 34 11.9838 34 11.3973V1.06222C34 0.371007 34.6301 0 35.0685 0H40.25ZM37.8219 2.6301C37.2696 2.6301 36.8219 3.07782 36.8219 3.6301V6.89038C36.8219 7.44266 37.2696 7.89038 37.8219 7.89038H41.0822C41.6345 7.89038 42.0822 7.44266 42.0822 6.89038V3.6301C42.0822 3.07782 41.6345 2.6301 41.0822 2.6301H37.8219Z" fill="white"/>
<path d="M47.7808 57.9846C47.7808 61.0862 50.3041 63.6096 53.4058 63.6096H54.3433C54.9801 63.6096 55.2808 63.21 55.2808 62.557V53.4795C55.2808 52.6028 54.7945 52.3596 54.1437 52.3596H48.9303C48.3264 52.3596 47.7808 52.6028 47.7808 53.4795V57.9846Z" fill="white"/>
<path d="M34 28.375C34 35.6121 39.8879 41.5 47.125 41.5H54.0746C54.8954 41.5 55.2329 41.2054 55.25 40.3287C55.2671 39.452 55.25 13.125 55.25 13.125C55.25 8.57234 52.9196 4.55434 49.3896 2.19934C49.941 3.43859 50.25 4.80847 50.25 6.24997C50.25 11.764 45.764 16.25 40.25 16.25H35.0685C34.1918 16.25 34 16.9143 34 17.5342V28.375Z" fill="white"/>
</svg>
