<?xml version="1.0" standalone="no"?>
<!DOCTYPE svg PUBLIC "-//W3C//DTD SVG 20010904//EN"
 "http://www.w3.org/TR/2001/REC-SVG-20010904/DTD/svg10.dtd">
<svg version="1.0" xmlns="http://www.w3.org/2000/svg"
 width="1536.000000pt" height="1536.000000pt" viewBox="0 0 1536.000000 1536.000000"
 preserveAspectRatio="xMidYMid meet">
<metadata>
Created by potrace 1.14, written by Peter Selinger 2001-2017
</metadata>
<g transform="translate(0.000000,1536.000000) scale(0.100000,-0.100000)"
fill="#000000" stroke="none">
<path d="M4829 13796 c-2 -2 -35 -6 -74 -10 -62 -6 -124 -14 -230 -32 -60 -10
-251 -57 -305 -76 -30 -10 -57 -19 -60 -20 -75 -14 -397 -160 -526 -238 -411
-249 -720 -556 -964 -955 -54 -89 -167 -311 -185 -365 -1 -3 -6 -16 -12 -30
-68 -164 -148 -463 -167 -623 l-5 -37 2463 2 2463 3 35 27 c20 15 46 49 59 75
l24 48 0 1040 0 1040 -23 45 c-23 48 -68 84 -123 100 -30 9 -2360 14 -2370 6z"/>
<path d="M8215 13793 c-29 -6 -95 -54 -117 -84 -11 -14 -23 -43 -28 -65 -4
-21 -7 -501 -7 -1065 l2 -1026 30 -49 c21 -34 44 -56 75 -71 l44 -23 586 1
c541 0 592 2 680 20 251 52 450 158 626 336 143 143 271 365 308 534 33 148
35 163 36 304 0 107 -2 137 -15 210 -20 113 -77 278 -118 338 -10 15 -16 27
-12 27 3 0 -22 41 -57 92 -149 217 -369 384 -616 467 -160 54 -154 54 -797 56
-330 2 -609 1 -620 -2z m1260 -506 c49 -16 91 -53 113 -99 20 -41 21 -59 21
-399 l0 -357 -28 -44 c-16 -25 -46 -56 -67 -69 l-39 -24 -360 -3 -360 -3 -45
24 c-25 13 -58 43 -75 66 l-30 43 -2 351 c-1 227 2 364 9 387 20 65 77 119
137 130 59 11 693 8 726 -3z"/>
<path d="M11010 13362 c0 -4 4 -12 9 -17 31 -31 118 -353 138 -510 10 -77 10
-385 1 -450 -4 -27 -10 -67 -13 -87 -3 -21 -10 -59 -16 -85 -6 -27 -13 -59
-15 -73 -19 -102 -124 -358 -204 -498 -107 -188 -312 -421 -479 -546 -31 -22
-58 -43 -61 -46 -21 -23 -209 -134 -295 -174 -145 -68 -351 -134 -490 -156
-38 -6 -86 -13 -105 -17 -19 -3 -303 -7 -630 -8 -327 -2 -614 -6 -638 -10 -55
-8 -105 -52 -129 -113 -17 -44 -18 -110 -18 -1197 1 -1049 3 -1205 20 -1345
21 -164 108 -484 165 -607 11 -24 20 -46 20 -49 0 -11 111 -227 148 -288 170
-280 399 -532 667 -734 248 -187 643 -368 925 -426 14 -3 36 -8 50 -11 56 -13
220 -36 300 -43 47 -3 432 -6 855 -7 l770 0 46 23 c35 17 51 33 70 70 l24 47
0 2710 c0 1491 -4 2748 -8 2795 -9 101 -31 240 -52 330 -8 36 -17 76 -20 89
-27 117 -135 398 -197 511 -71 129 -93 167 -115 196 -13 17 -23 34 -23 38 0 4
-5 12 -10 19 -6 7 -34 44 -62 82 -111 151 -269 320 -402 430 -26 22 -53 45
-59 50 -7 6 -28 22 -47 35 -19 13 -37 27 -40 30 -8 10 -68 50 -74 50 -3 0 -6
-4 -6 -8z"/>
<path d="M10845 3778 c-63 -16 -96 -42 -122 -96 l-26 -54 0 -481 c1 -423 4
-559 16 -617 23 -109 34 -146 59 -209 114 -288 340 -511 628 -619 127 -47 270
-68 457 -66 142 1 162 3 193 22 39 24 64 60 75 111 4 19 7 447 8 952 l0 917
-24 49 c-18 35 -36 55 -69 73 l-45 25 -560 1 c-308 0 -574 -3 -590 -8z"/>
</g>
</svg>
