<svg viewBox="0 0 64 61" fill="none" xmlns="http://www.w3.org/2000/svg">
<path d="M18.1243 0C10.8332 0 4.79247 5.13806 3.87109 11.7716H29.2468C29.9996 11.7716 30.2461 11.1459 30.2461 10.7331C30.2461 10.3203 30.2526 1.6061 30.2493 1.00945C30.2461 0.412812 29.8077 0 29.1491 0H18.1243Z" fill="white"/>
<path fill-rule="evenodd" clip-rule="evenodd" d="M40.25 0C43.6962 0 46.5 2.80375 46.5 6.25C46.5 9.69625 43.6962 12.5 40.25 12.5H35.0685C34.3598 12.5 34 11.9838 34 11.3973V1.06222C34 0.371007 34.6301 0 35.0685 0H40.25ZM37.8219 2.6301C37.2696 2.6301 36.8219 3.07782 36.8219 3.6301V6.89038C36.8219 7.44266 37.2696 7.89038 37.8219 7.89038H41.0822C41.6345 7.89038 42.0822 7.44266 42.0822 6.89038V3.6301C42.0822 3.07782 41.6345 2.6301 41.0822 2.6301H37.8219Z" fill="white"/>
<path d="M47.7812 54.6057C47.7812 57.5266 50.3046 59.9029 53.4062 59.9029H54.3438C54.9806 59.9029 55.2812 59.5266 55.2812 58.9116V50.3631C55.2812 49.5375 54.7949 49.3085 54.1442 49.3085H48.9308C48.3269 49.3085 47.7812 49.5375 47.7812 50.3631V54.6057Z" fill="white"/>
<path d="M34 26.7215C34 33.5369 39.8879 39.0816 47.125 39.0816H54.0746C54.8954 39.0816 55.2329 38.8043 55.25 37.9787C55.2671 37.153 55.25 12.3601 55.25 12.3601C55.25 8.07279 52.9196 4.28893 49.3896 2.07117C49.941 3.2382 50.25 4.52825 50.25 5.88575C50.25 11.0784 45.764 15.303 40.25 15.303H35.0685C34.1918 15.303 34 15.9287 34 16.5124V26.7215Z" fill="white"/>
</svg>
